<mxfile host="app.diagrams.net" modified="2023-11-19T17:28:47.886Z" agent="Mozilla/5.0 (Windows NT 10.0; Win64; x64) AppleWebKit/537.36 (KHTML, like Gecko) Chrome/119.0.0.0 Safari/537.36" etag="7MbM-TmnjqSfcS_xpj5q" version="22.1.3" type="device">
  <diagram name="Strona-1" id="sW018aaz1p37koQw2vP2">
    <mxGraphModel dx="652" dy="1132" grid="1" gridSize="10" guides="1" tooltips="1" connect="1" arrows="1" fold="1" page="1" pageScale="1" pageWidth="827" pageHeight="1169" math="0" shadow="0">
      <root>
        <mxCell id="0" />
        <mxCell id="1" parent="0" />
        <mxCell id="YfA0y06nHLStCHrAQ_e_-4" style="edgeStyle=orthogonalEdgeStyle;rounded=0;orthogonalLoop=1;jettySize=auto;html=1;exitX=0;exitY=1;exitDx=0;exitDy=0;entryX=0.5;entryY=0;entryDx=0;entryDy=0;" edge="1" parent="1" source="YfA0y06nHLStCHrAQ_e_-1" target="YfA0y06nHLStCHrAQ_e_-2">
          <mxGeometry relative="1" as="geometry" />
        </mxCell>
        <mxCell id="YfA0y06nHLStCHrAQ_e_-5" style="edgeStyle=orthogonalEdgeStyle;rounded=0;orthogonalLoop=1;jettySize=auto;html=1;exitX=1;exitY=1;exitDx=0;exitDy=0;entryX=0.5;entryY=0;entryDx=0;entryDy=0;" edge="1" parent="1" source="YfA0y06nHLStCHrAQ_e_-1" target="YfA0y06nHLStCHrAQ_e_-3">
          <mxGeometry relative="1" as="geometry" />
        </mxCell>
        <mxCell id="YfA0y06nHLStCHrAQ_e_-1" value="&amp;lt;&amp;lt;WINDOW&amp;gt;&amp;gt;&lt;br&gt;Main Menu" style="rounded=0;whiteSpace=wrap;html=1;" vertex="1" parent="1">
          <mxGeometry x="360" y="140" width="120" height="60" as="geometry" />
        </mxCell>
        <mxCell id="YfA0y06nHLStCHrAQ_e_-2" value="&amp;lt;&amp;lt;form&amp;gt;&amp;gt;&lt;br&gt;Task Edit Form" style="rounded=0;whiteSpace=wrap;html=1;" vertex="1" parent="1">
          <mxGeometry x="250" y="310" width="120" height="60" as="geometry" />
        </mxCell>
        <mxCell id="YfA0y06nHLStCHrAQ_e_-3" value="&amp;lt;&amp;lt;form&amp;gt;&amp;gt;&lt;br&gt;Place Edit Form" style="rounded=0;whiteSpace=wrap;html=1;" vertex="1" parent="1">
          <mxGeometry x="470" y="310" width="120" height="60" as="geometry" />
        </mxCell>
      </root>
    </mxGraphModel>
  </diagram>
</mxfile>
